# xmcd
#
# Track frame offsets:
#	183
#	16703
#	34748
#	51400
#	65178
#	76763
#	89443
#	118393
#	128988
#	142643
#	160113
#	173748
#	185460
#	198908
#
# Disc length: 2823
#
# Revision: 1
# Processed by: cddbd v1.5.1PL0 Copyright (c) Steve Scherf et al.
# Submitted via: EasyCDDAExtractor 4.6.9.1
# Normalized: r0:TDELIM( - )
#
DISCID=b80b050e
DTITLE=Various Artist - Black Hits
DYEAR=1995
DGENRE=Blues
TTITLE0=Aretha Franklin - Think
TTITLE1=Marving Gaye - Sexual Healing
TTITLE2=Diana Ross - Upside Down
TTITLE3=Jackson 5 - I Want You Back
TTITLE4=Sam and Dave - Soul Man
TTITLE5=Michael jackson - Ben
TTITLE6=Stevie Wonder - Fingertips
TTITLE7=Breton Wood - Gimme Little Sign
TTITLE8=Jackson 5 - ABC
TTITLE9=Marvin Gaye - What's Going On
TTITLE10=Ben E. King - Stand By Me
TTITLE11=Michael Jackson - Rockin' Robin
TTITLE12=Eddie Floyd - Knock On Wood
TTITLE13=Percy Sledge - When a Man Loves a Woman
EXTD=
EXTT0=
EXTT1=
EXTT2=
EXTT3=
EXTT4=
EXTT5=
EXTT6=
EXTT7=
EXTT8=
EXTT9=
EXTT10=
EXTT11=
EXTT12=
EXTT13=
PLAYORDER=
